<svg xmlns="http://www.w3.org/2000/svg" xmlns:xlink="http://www.w3.org/1999/xlink" viewBox="0 0 1184.86 270.34"><defs><style>.cls-1{fill:none;}.cls-2{clip-path:url(#clip-path);}.cls-3{fill:#1a2836;}.cls-4{fill:#b09760;}</style><clipPath id="clip-path"><rect class="cls-1" width="1184.86" height="270.34"/></clipPath></defs><g id="Layer_2" data-name="Layer 2"><g id="Layer_1-2" data-name="Layer 1"><g class="cls-2"><path class="cls-3" d="M320.14,91.14l29-72.39a3.5,3.5,0,0,1,3.26-2.2h23.85a3.51,3.51,0,0,1,3.25,4.82L330,144.31a3.51,3.51,0,0,1-3.26,2.21H307a3.52,3.52,0,0,1-3.26-2.21L254.3,21.37a3.51,3.51,0,0,1,3.26-4.82h23.85a3.5,3.5,0,0,1,3.26,2.2l28.95,72.39a3.51,3.51,0,0,0,6.52,0"/><path class="cls-3" d="M486.82,20.06V38.88a3.51,3.51,0,0,1-3.51,3.52H425.63a3.51,3.51,0,0,0-3.51,3.5V65.66a3.51,3.51,0,0,0,3.51,3.5H476.8a3.52,3.52,0,0,1,3.52,3.52V90.39a3.52,3.52,0,0,1-3.52,3.51H425.63a3.51,3.51,0,0,0-3.51,3.51v19.94a3.51,3.51,0,0,0,3.51,3.51h59.73a3.51,3.51,0,0,1,3.51,3.51V143a3.51,3.51,0,0,1-3.51,3.51H396.62a3.51,3.51,0,0,1-3.51-3.51V20.06a3.51,3.51,0,0,1,3.51-3.51h86.69a3.51,3.51,0,0,1,3.51,3.51"/><path class="cls-3" d="M605.42,16.55h22a3.51,3.51,0,0,1,3.51,3.5V143a3.51,3.51,0,0,1-3.51,3.51H603.65a3.52,3.52,0,0,1-2.79-1.39L546.3,73.37a3.51,3.51,0,0,0-6.3,2.12V143a3.51,3.51,0,0,1-3.51,3.51h-22A3.51,3.51,0,0,1,511,143v-123a3.51,3.51,0,0,1,3.51-3.5h21.9a3.52,3.52,0,0,1,2.79,1.38l56.43,74a3.5,3.5,0,0,0,6.29-2.12V20.05a3.51,3.51,0,0,1,3.51-3.5"/><path class="cls-3" d="M689.58,42.49a11.2,11.2,0,0,0-4.18,9.11,10.28,10.28,0,0,0,5.11,9q5.12,3.35,23.61,7.91t28.73,13.66q10.23,9.1,10.22,26.59T740,137.13Q726.86,148,705.48,148q-29.29,0-53.06-20.59a3.56,3.56,0,0,1-.4-4.9l12.91-15.82a3.52,3.52,0,0,1,5-.43q19.44,16.09,36.13,16.09,8,0,12.54-3.45a11,11,0,0,0,4.56-9.29,10.83,10.83,0,0,0-4.83-9.3q-4.84-3.44-19.15-7-22.7-5.4-33.19-14t-10.5-27.15q0-18.49,13.29-28.54t33.18-10A79.76,79.76,0,0,1,728,18a71,71,0,0,1,20.1,10.56,3.53,3.53,0,0,1,.69,4.8L738,49a3.5,3.5,0,0,1-4.9.83Q717.52,39.05,701,39q-7.26,0-11.44,3.45"/><path class="cls-3" d="M858.29,16.55h22a3.51,3.51,0,0,1,3.51,3.5V143a3.51,3.51,0,0,1-3.51,3.51h-22a3.51,3.51,0,0,1-3.51-3.51V98.9a3.52,3.52,0,0,0-3.51-3.52H806.6a3.52,3.52,0,0,0-3.51,3.52V143a3.51,3.51,0,0,1-3.51,3.51h-22a3.51,3.51,0,0,1-3.51-3.51v-123a3.51,3.51,0,0,1,3.51-3.5h22a3.51,3.51,0,0,1,3.51,3.5V67.33a3.51,3.51,0,0,0,3.51,3.51h44.67a3.51,3.51,0,0,0,3.51-3.51V20.05a3.51,3.51,0,0,1,3.51-3.5"/><path class="cls-3" d="M962.17,62.69l-11,25.37a3.5,3.5,0,0,0,3.21,4.9h21.87a3.5,3.5,0,0,0,3.23-4.88L968.62,62.71a3.51,3.51,0,0,0-6.45,0m41.56,81.7-10.26-23.83a3.5,3.5,0,0,0-3.22-2.12H940.39a3.5,3.5,0,0,0-3.22,2.12l-10.26,23.83a3.53,3.53,0,0,1-3.23,2.13H900.47a3.51,3.51,0,0,1-3.22-4.91L950.36,18.67a3.52,3.52,0,0,1,3.23-2.12h23.46a3.5,3.5,0,0,1,3.22,2.12l53.12,122.94a3.52,3.52,0,0,1-3.22,4.91H1007a3.52,3.52,0,0,1-3.22-2.13"/><path class="cls-3" d="M1146.32,80.79q0-17.39-11.15-29.66a36.78,36.78,0,0,0-54.85,0q-11.16,12.27-11.16,29.66t11.16,29.56a37,37,0,0,0,54.85,0q11.14-12.16,11.15-29.56m29.57-.1a66.39,66.39,0,0,1-10.32,36.45,63.81,63.81,0,0,1-27.8,24.17,13.32,13.32,0,0,0,5.3,4.74,15.68,15.68,0,0,0,7.53,1.95,24.67,24.67,0,0,0,7.62-1.2,20.36,20.36,0,0,0,6-2.89,35.36,35.36,0,0,0,4.38-4.13,3.52,3.52,0,0,1,5.39,0L1184,151.84a3.53,3.53,0,0,1-.21,4.79q-15.39,14.61-37.69,14.62a43.87,43.87,0,0,1-21.93-6.14,41.17,41.17,0,0,1-15.62-15.56,3.43,3.43,0,0,0-2.9-1.76q-27.54-.63-46.56-19.22-19.71-19.23-19.71-47.88t19.71-47.87q19.7-19.25,48.53-19.25t48.52,19.25q19.71,19.24,19.72,47.87"/></g><polygon class="cls-3" points="312.97 205.57 312.97 256.19 305.75 256.19 305.75 233.63 276.68 233.63 276.68 256.19 269.45 256.19 269.45 205.57 276.68 205.57 276.68 227.34 305.75 227.34 305.75 205.57 312.97 205.57"/><g class="cls-2"><path class="cls-3" d="M442.91,230.88c0-11.2-8.39-19.45-19.59-19.45s-19.74,8.25-19.74,19.45,8.39,19.45,19.74,19.45,19.59-8.24,19.59-19.45m-46.56,0c0-14.82,11.42-25.88,27-25.88s26.82,11,26.82,25.88-11.42,25.89-26.82,25.89-27-11.06-27-25.89"/></g><polygon class="cls-3" points="533.51 205.57 540.75 205.57 540.75 249.89 568.15 249.89 568.15 256.19 533.51 256.19 533.51 205.57"/><g class="cls-2"><path class="cls-3" d="M669.67,249.89c12.51,0,20.53-7.66,20.53-19s-8-19-20.53-19H656v38Zm-20.9-44.32H670.1c16.27,0,27.33,10.27,27.33,25.31s-11.06,25.31-27.33,25.31H648.77Z"/></g><rect class="cls-3" x="780.8" y="205.58" width="7.23" height="50.61"/><polygon class="cls-3" points="919.05 205.57 919.05 256.19 913.12 256.19 882.76 218.45 882.76 256.19 875.53 256.19 875.53 205.57 881.46 205.57 911.83 243.32 911.83 205.57 919.05 205.57"/><path class="cls-3" d="M1041.62,230.59h6.94v19.74c-5.06,4.26-12.08,6.43-19.16,6.43-15.55,0-27-10.91-27-25.88S1013.85,205,1029.55,205c8,0,14.81,2.67,19.44,7.81l-4.48,4.48a20.07,20.07,0,0,0-14.68-5.86c-11.71,0-20.17,8.17-20.17,19.45s8.46,19.45,20.1,19.45a21.48,21.48,0,0,0,11.86-3.25Z"/><path class="cls-3" d="M1130.05,250.4l2.68-5.64c3.76,3.4,10.19,5.86,16.7,5.86,8.75,0,12.51-3.4,12.51-7.81,0-12.36-30.65-4.55-30.65-23.35,0-7.81,6.07-14.46,19.37-14.46,5.93,0,12.07,1.59,16.27,4.48l-2.39,5.79a26,26,0,0,0-13.88-4.13c-8.6,0-12.3,3.62-12.3,8,0,12.36,30.67,4.63,30.67,23.2,0,7.74-6.23,14.4-19.6,14.4-7.73,0-15.33-2.61-19.38-6.37"/><path class="cls-4" d="M186.88,56.51a61.76,61.76,0,0,0-1.3-7.23,61.84,61.84,0,0,0-2.35-7,68.25,68.25,0,0,0-3.62-7.63A68,68,0,0,0,148.7,6.12a62.63,62.63,0,0,0-8.15-3.06,64.11,64.11,0,0,0-18.2-3c-.51,0-1,0-1.55,0H20.7A20.73,20.73,0,0,0,0,20.75H.08V169.17a23.13,23.13,0,0,0,.16,2.93.86.86,0,0,0,.08.44,28.42,28.42,0,0,0,11.92,20.07,27.42,27.42,0,0,0,13,5,26,26,0,0,0,3.54.23,28.7,28.7,0,0,0,14.86-4.13c.6-.36,1.19-.75,1.79-1.19A227,227,0,0,0,73.24,169.2a220.43,220.43,0,0,0,33.58-42.08c.27-.4.51-.75.75-1.15,2.19-3.54,4.25-7.16,6.24-10.81.31-.56.59-1.11.91-1.71,3-5.68,5.8-11.56,8.31-17.56,1.27-3,2.5-6,3.65-9.1.12-.44.28-.87.44-1.31a10.9,10.9,0,0,1,20.79,3.22c0,.35,0,.75,0,1.1s0,.76,0,1.12a37.07,37.07,0,0,1-6.36,19.79c-.33.52-.68,1-1.08,1.55-2,2.94-4.05,5.84-6.2,8.7a650.17,650.17,0,0,1-44.9,55.6Q83.76,182.82,78,189c-.63.68-1.27,1.35-1.94,2C71.57,195.71,67,200.4,62.27,205l-.84.83q-13.77,13.53-28.29,26.27-12,10.54-24.52,20.5a.44.44,0,0,1-.16.12c-7.19,5.84-2.62,17.61,6.64,17.61h2.39a20.26,20.26,0,0,0,12.79-4.54A692.29,692.29,0,0,0,180.17,95.41a45.3,45.3,0,0,0,6.71-23.92,66.43,66.43,0,0,0,.44-7.51,65.72,65.72,0,0,0-.44-7.47"/><path class="cls-4" d="M165.27,146.45A669.7,669.7,0,0,1,74.7,249.81a11.85,11.85,0,0,0,8.08,20.52h.13A11.94,11.94,0,0,0,91,267.16a692.66,692.66,0,0,0,93.67-106.93,12,12,0,0,0,2.2-6.91v-.11c0-11.62-14.9-16.25-21.62-6.76"/><path class="cls-4" d="M165.67,211.59q-16.08,20-33.67,38.74a11.89,11.89,0,0,0,8.72,20h0a11.94,11.94,0,0,0,8.72-3.76q18.14-19.33,34.79-40.08a11.93,11.93,0,0,0,2.62-7.5c0-11.27-14.14-16.19-21.21-7.4"/><rect class="cls-1" width="1184.86" height="270.34"/></g></g></svg>